<?xml version="1.0" standalone="no"?>
<!DOCTYPE svg PUBLIC "-//W3C//DTD SVG 20010904//EN"
 "http://www.w3.org/TR/2001/REC-SVG-20010904/DTD/svg10.dtd">
<svg version="1.0" xmlns="http://www.w3.org/2000/svg"
 width="1072.000000pt" height="1072.000000pt" viewBox="0 0 1072.000000 1072.000000"
 preserveAspectRatio="xMidYMid meet">
<metadata>
Created by potrace 1.11, written by Peter Selinger 2001-2013
</metadata>
<g transform="translate(0.000000,1072.000000) scale(0.100000,-0.100000)"
fill="#000000" stroke="none">
<path d="M2737 7824 c-1 -1 -49 -4 -107 -8 -103 -6 -144 -11 -205 -22 -16 -3
-48 -7 -70 -10 -175 -24 -459 -116 -649 -211 -368 -185 -683 -465 -918 -818
-88 -132 -196 -345 -252 -498 -34 -91 -89 -287 -101 -360 -3 -18 -8 -39 -10
-47 -2 -8 -7 -35 -10 -60 -3 -25 -8 -61 -11 -80 -13 -91 -15 -128 -18 -305 -5
-282 22 -462 108 -718 204 -610 701 -1149 1321 -1434 153 -70 386 -141 520
-159 28 -3 52 -8 56 -9 30 -18 450 -27 584 -12 125 13 148 18 275 48 246 61
726 252 1465 584 33 14 74 33 90 40 17 7 74 34 128 59 55 25 101 46 103 46 2
0 52 23 110 50 58 28 108 50 109 50 2 0 63 28 136 63 248 117 299 140 303 136
2 -2 27 -38 57 -79 29 -41 56 -77 59 -80 3 -3 32 -39 65 -80 130 -164 408
-423 590 -551 293 -206 659 -358 975 -405 19 -3 46 -7 60 -10 158 -28 517 -22
710 13 19 3 44 7 55 9 55 7 216 47 302 75 373 119 657 293 939 574 292 292
489 617 604 999 39 126 72 275 85 381 4 28 8 61 11 75 17 102 22 372 10 515
-8 94 -44 283 -73 376 -9 29 -17 59 -19 64 -8 41 -87 231 -135 328 -156 312
-373 574 -681 820 -361 290 -763 458 -1199 504 -181 18 -483 6 -649 -27 -30
-6 -66 -13 -80 -16 -14 -3 -70 -19 -125 -36 -55 -17 -104 -32 -110 -34 -15 -3
-356 -134 -390 -149 -16 -7 -108 -46 -204 -85 -150 -61 -862 -377 -1091 -483
-41 -19 -138 -64 -215 -100 -77 -36 -178 -83 -225 -104 -47 -22 -91 -42 -99
-45 -10 -3 -34 25 -72 81 -175 264 -506 582 -809 776 -267 171 -623 308 -890
341 -19 2 -44 6 -55 8 -38 9 -350 26 -358 20z m293 -1078 c339 -26 615 -159
899 -435 58 -55 108 -101 113 -101 4 0 8 -4 8 -10 0 -15 -217 -113 -231 -104
-5 3 -15 20 -23 38 -8 18 -24 42 -36 53 -42 40 -123 39 -162 -2 -12 -13 -57
-108 -99 -211 -42 -104 -100 -245 -128 -314 -78 -186 -141 -356 -141 -380 0
-26 22 -70 47 -92 11 -10 55 -27 99 -38 43 -12 86 -23 94 -25 25 -7 184 -46
202 -50 10 -2 59 -15 110 -29 272 -73 409 -105 435 -102 89 10 135 99 93 181
-11 21 -20 43 -20 48 0 4 17 15 37 23 34 15 269 120 403 181 30 14 89 40 130
58 41 18 100 44 130 58 30 14 233 105 450 202 217 97 428 192 468 211 41 19
75 34 77 34 2 0 59 25 127 56 68 30 137 61 153 69 17 7 55 24 85 38 30 14 147
66 260 117 113 51 255 114 315 142 61 27 124 55 140 63 17 7 59 27 95 43 365
165 650 209 955 147 463 -94 870 -470 1000 -922 43 -152 54 -235 50 -408 -1
-88 -6 -173 -9 -190 -74 -335 -172 -533 -357 -715 -109 -108 -286 -220 -419
-265 -3 -1 -12 -5 -20 -8 -64 -28 -194 -62 -347 -91 -100 -20 -367 -27 -463
-14 -106 16 -120 18 -167 29 -27 6 -58 13 -71 15 -32 6 -126 42 -198 74 -56
26 -213 116 -224 129 -3 3 -36 32 -75 63 -71 57 -163 144 -223 211 l-33 37 23
9 c13 5 63 28 112 50 49 23 90 40 91 39 1 -2 12 -22 24 -46 37 -74 106 -100
176 -66 37 17 45 32 100 174 31 83 132 328 170 415 32 74 94 234 108 281 12
42 13 56 2 89 -19 55 -40 67 -173 102 -53 14 -113 29 -132 34 -19 4 -78 19
-130 33 -231 61 -516 132 -527 130 -7 -1 -22 -2 -33 -3 -11 0 -34 -14 -51 -29
-42 -38 -50 -101 -20 -160 l21 -41 -53 -24 c-28 -13 -87 -41 -130 -61 -43 -20
-80 -36 -82 -36 -3 0 -33 -13 -67 -29 -35 -15 -85 -39 -113 -51 -27 -12 -83
-38 -123 -56 -41 -19 -75 -34 -78 -34 -2 0 -47 -20 -100 -45 -52 -25 -97 -45
-99 -45 -4 0 -408 -181 -503 -226 -40 -19 -75 -34 -77 -34 -2 0 -57 -24 -122
-54 -65 -29 -221 -100 -348 -156 -126 -57 -259 -116 -295 -133 -36 -16 -108
-48 -160 -72 -52 -23 -212 -95 -355 -160 -446 -201 -606 -248 -855 -249 -248
0 -513 75 -693 198 -21 14 -40 26 -43 26 -7 0 -129 99 -175 142 -33 30 -91 94
-144 159 -130 159 -237 428 -263 664 -12 109 -5 310 13 375 2 8 6 26 9 40 10
59 40 161 69 235 88 225 250 432 429 551 146 96 399 196 568 224 36 6 76 13
90 16 14 2 66 7 115 10 50 4 91 7 92 8 3 2 122 -2 203 -8z"/>
</g>
</svg>
